HIERARCHY
ROOT Hips
{
	OFFSET 0.000000 0.000000 0.000000
	CHANNELS 6 Xposition Yposition Zposition Zrotation Yrotation Xrotation 
	JOINT LHipJoint
	{
		OFFSET 0.000000 0.000000 0.000000
		CHANNELS 3 Zrotation Yrotation Xrotation
		JOINT LeftUpLeg
		{
			OFFSET 1.363060 -1.794630 0.839290
			CHANNELS 3 Zrotation Yrotation Xrotation
			JOINT LeftLeg
			{
				OFFSET 2.448110 -6.726130 0.000000
				CHANNELS 3 Zrotation Yrotation Xrotation
				JOINT LeftFoot
				{
					OFFSET 2.562200 -7.039590 0.000000
					CHANNELS 3 Zrotation Yrotation Xrotation
					JOINT LeftToeBase
					{
						OFFSET 0.157640 -0.433110 2.322550
						CHANNELS 3 Zrotation Yrotation Xrotation
						End Site
						{
							OFFSET 0.000000 0.000000 0.000000
						}
					}
				}
			}
		}
	}
	JOINT RHipJoint
	{
		OFFSET 0.000000 0.000000 0.000000
		CHANNELS 3 Zrotation Yrotation Xrotation
		JOINT RightUpLeg
		{
			OFFSET -1.305520 -1.794630 0.839290
			CHANNELS 3 Zrotation Yrotation Xrotation
			JOINT RightLeg
			{
				OFFSET -2.542530 -6.985550 0.000000
				CHANNELS 3 Zrotation Yrotation Xrotation
				JOINT RightFoot
				{
					OFFSET -2.568260 -7.056230 0.000000
					CHANNELS 3 Zrotation Yrotation Xrotation
					JOINT RightToeBase
					{
						OFFSET -0.164730 -0.452590 2.363150
						CHANNELS 3 Zrotation Yrotation Xrotation
						End Site
						{
							OFFSET 0.000000 0.000000 0.000000
						}
					}
				}
			}
		}
	}
	JOINT LowerBack
	{
		OFFSET 0.000000 0.000000 0.000000
		CHANNELS 3 Zrotation Yrotation Xrotation
		JOINT Spine
		{
			OFFSET 0.028270 2.035590 -0.193380
			CHANNELS 3 Zrotation Yrotation Xrotation
			JOINT Spine1
			{
				OFFSET 0.056720 2.048850 -0.042750
				CHANNELS 3 Zrotation Yrotation Xrotation
				JOINT Neck
				{
					OFFSET 0.000000 0.000000 0.000000
					CHANNELS 3 Zrotation Yrotation Xrotation
					JOINT Neck1
					{
						OFFSET -0.054170 1.746240 0.172020
						CHANNELS 3 Zrotation Yrotation Xrotation
						JOINT Head
						{
							OFFSET 0.104070 1.761360 -0.123970
							CHANNELS 3 Zrotation Yrotation Xrotation
							End Site
							{
								OFFSET 0.000000 0.000000 0.000000
							}
						}
					}
				}
				JOINT LeftShoulder
				{
					OFFSET 0.000000 0.000000 0.000000
					CHANNELS 3 Zrotation Yrotation Xrotation
					JOINT LeftArm
					{
						OFFSET 3.362410 1.200890 -0.311210
						CHANNELS 3 Zrotation Yrotation Xrotation
						JOINT LeftForeArm
						{
							OFFSET 4.983000 -0.000000 -0.000000
							CHANNELS 3 Zrotation Yrotation Xrotation
							JOINT LeftHand
							{
								OFFSET 3.483560 -0.000000 -0.000000
								CHANNELS 3 Zrotation Yrotation Xrotation
								JOINT LeftFingerBase
								{
									OFFSET 0.000000 0.000000 0.000000
									CHANNELS 3 Zrotation Yrotation Xrotation
									JOINT LeftHandIndex1
									{
										OFFSET 0.715260 -0.000000 -0.000000
										CHANNELS 3 Zrotation Yrotation Xrotation
										End Site
										{
											OFFSET 0.000000 0.000000 0.000000
										}
									}
								}
								JOINT LThumb
								{
									OFFSET 0.000000 0.000000 0.000000
									CHANNELS 3 Zrotation Yrotation Xrotation
									End Site
									{
										OFFSET 0.000000 0.000000 0.000000
									}
								}
							}
						}
					}
				}
				JOINT RightShoulder
				{
					OFFSET 0.000000 0.000000 0.000000
					CHANNELS 3 Zrotation Yrotation Xrotation
					JOINT RightArm
					{
						OFFSET -3.136600 1.374050 -0.404650
						CHANNELS 3 Zrotation Yrotation Xrotation
						JOINT RightForeArm
						{
							OFFSET -5.241900 -0.000000 -0.000000
							CHANNELS 3 Zrotation Yrotation Xrotation
							JOINT RightHand
							{
								OFFSET -3.444170 -0.000000 -0.000000
								CHANNELS 3 Zrotation Yrotation Xrotation
								JOINT RightFingerBase
								{
									OFFSET 0.000000 0.000000 0.000000
									CHANNELS 3 Zrotation Yrotation Xrotation
									JOINT RightHandIndex1
									{
										OFFSET -0.622530 -0.000000 -0.000000
										CHANNELS 3 Zrotation Yrotation Xrotation
										End Site
										{
											OFFSET 0.000000 0.000000 0.000000
										}
									}
								}
								JOINT RThumb
								{
									OFFSET 0.000000 0.000000 0.000000
									CHANNELS 3 Zrotation Yrotation Xrotation
									End Site
									{
										OFFSET 0.000000 0.000000 0.000000
									}
								}
							}
						}
					}
				}
			}
		}
	}
}
MOTION
Frames: 9
Frame Time: 0.041667
-9.294928 18.614776 2.123680 -61.490294 88.765504 -11.639921 -10.412253 -1.477668 0.673864 -11.451900 7.098181 -74.404827 -1.157393 4.388639 51.956627 0.875339 4.010976 12.277184 1.686300 0.000000 -79.733400 9.094387 -0.323556 2.588863 11.340716 0.006308 -73.064556 0.681126 -4.809834 51.361906 -2.370287 -12.104039 14.755472 -5.789300 0.000000 -55.330600 2.152525 2.183105 -1.320050 0.477917 2.149021 -3.476985 -1.447035 2.114525 -2.071911 -1.864780 -5.274980 -3.476269 0.000000 0.000000 0.000000 0.000000 0.000000 0.000000 9.309168 3.062981 0.989305 -43.846229 -45.735317 -5.985339 179.717288 -88.279134 179.737651 22.580759 -10.598869 -2.341333 -0.391591 0.891469 -0.000000 0.000000 0.000000 0.000000 0.000000 0.000000 0.000000 -16.550803 1.091402 -0.625687 43.146720 34.322683 -16.153196 -179.277816 68.657625 179.807050 -17.050216 3.226949 -0.603544 0.326373 -0.725727 -0.000000 0.000000 0.000000 0.000000 0.000000 0.000000 0.000000 
-9.206216 18.681173 2.113048 -59.037999 88.543405 -8.429958 -10.276660 -1.575812 0.790247 -11.351540 6.713395 -76.740126 -1.218187 4.615361 52.612282 0.863596 4.014614 10.709032 1.642600 0.000000 -79.510900 9.026763 -0.274912 2.719233 11.624936 0.699625 -75.391835 0.701468 -5.005530 52.169122 -2.447355 -12.293951 13.379204 -5.693900 -0.000000 -55.535800 2.063459 2.214075 -1.426170 0.459730 2.186407 -3.488348 -1.401284 2.150054 -1.995109 -2.107355 -5.693040 -3.358633 0.000000 0.000000 0.000000 0.000000 0.000000 0.000000 9.992495 3.410690 0.755893 -40.628550 -45.433352 -9.584768 179.638504 -85.083826 179.717365 24.041916 -10.506256 -2.481269 -0.430188 0.906411 -0.000000 0.000000 0.000000 0.000000 0.000000 0.000000 0.000000 -17.119348 0.401183 -0.714690 40.714792 34.867214 -19.503948 -179.220196 66.400810 179.795465 -18.035939 3.197258 -0.635708 0.365051 -0.730933 -0.000000 0.000000 0.000000 0.000000 0.000000 0.000000 0.000000 
-9.118564 18.738661 2.102694 -57.056478 88.309244 -5.670240 -10.149545 -1.668010 0.907975 -11.194852 6.323994 -79.051448 -1.294614 4.831424 53.049475 0.836930 3.887757 9.352317 1.563400 -0.000000 -79.228900 8.954497 -0.232104 2.843516 11.885365 1.442797 -77.694703 0.738996 -5.189118 52.779175 -2.507436 -12.384168 12.124221 -5.570700 -0.000000 -55.765000 1.962351 2.233215 -1.508168 0.434824 2.212182 -3.491905 -1.369360 2.173712 -1.909140 -2.286165 -6.074057 -3.219946 0.000000 0.000000 0.000000 0.000000 0.000000 0.000000 10.563087 3.764134 0.526482 -37.292308 -44.922866 -13.317159 179.555456 -82.094715 179.698603 25.575031 -10.571910 -2.664287 -0.473021 0.919462 -0.000000 0.000000 0.000000 0.000000 0.000000 0.000000 0.000000 -17.551539 -0.283799 -0.783187 38.200589 35.293212 -23.040158 -179.197341 64.359854 179.785810 -18.960369 3.143686 -0.660561 0.404651 -0.731722 -0.000000 0.000000 0.000000 0.000000 0.000000 0.000000 0.000000 
-9.031196 18.788082 2.092422 -55.644506 88.076784 -3.471183 -10.031988 -1.753522 1.027800 -10.979517 5.927301 -81.318927 -1.382626 5.031797 53.261372 0.797318 3.666022 8.287597 1.471300 0.000000 -79.002800 8.879717 -0.194183 2.956662 12.121411 2.211715 -79.943999 0.795308 -5.357736 53.169217 -2.545003 -12.377716 11.099327 -5.446100 0.000000 -55.977600 1.858594 2.233282 -1.563299 0.407794 2.219064 -3.485419 -1.344970 2.178009 -1.808707 -2.410908 -6.421096 -3.070649 0.000000 0.000000 0.000000 0.000000 0.000000 0.000000 11.069683 4.118145 0.313367 -33.933197 -44.190025 -17.188328 179.483710 -79.187328 179.685869 26.662805 -10.169377 -2.685599 -0.513584 0.920885 -0.000000 0.000000 0.000000 0.000000 0.000000 0.000000 0.000000 -17.866072 -0.951731 -0.837115 35.662219 35.596313 -26.698299 -179.210490 62.538066 179.778401 -19.795680 3.070682 -0.677297 0.443904 -0.728508 -0.000000 0.000000 0.000000 0.000000 0.000000 0.000000 0.000000 
-8.943038 18.829891 2.081997 -54.871232 87.863600 -1.905094 -9.925542 -1.833580 1.149519 -10.702709 5.516643 -83.525171 -1.478252 5.210500 53.249830 0.745859 3.378159 7.548221 1.379800 0.000000 -78.828700 8.805020 -0.164316 3.054183 12.336720 2.985039 -82.115484 0.873009 -5.509704 53.321183 -2.555615 -12.280975 10.371355 -5.340700 0.000000 -56.156600 1.757683 2.221475 -1.587401 0.376022 2.213009 -3.469439 -1.343689 2.169229 -1.708099 -2.474398 -6.737617 -2.906666 0.000000 0.000000 0.000000 0.000000 0.000000 0.000000 11.407585 4.477648 0.104747 -30.550959 -43.282085 -20.963213 179.423792 -76.674635 179.671749 28.277262 -10.517191 -2.948453 -0.563143 0.929990 -0.000000 0.000000 0.000000 0.000000 0.000000 0.000000 0.000000 -18.062252 -1.617437 -0.874787 33.174936 35.738790 -30.393509 -179.259382 60.927997 179.773438 -20.526461 2.983443 -0.686118 0.481720 -0.721467 -0.000000 0.000000 0.000000 0.000000 0.000000 0.000000 0.000000 
-8.853198 18.863989 2.071117 -54.783970 87.678293 -1.027309 -9.830010 -1.906153 1.274722 -10.360630 5.090835 -85.652286 -1.579642 5.363723 53.021014 0.683531 3.044709 7.125988 1.294000 0.000000 -78.733800 8.733764 -0.142243 3.133987 12.539359 3.745908 -84.181166 0.974970 -5.643253 53.223067 -2.536356 -12.100441 9.961685 -5.263700 0.000000 -56.313300 1.674017 2.193532 -1.582629 0.346127 2.189618 -3.442746 -1.356453 2.142652 -1.600921 -2.496910 -7.035844 -2.742235 0.000000 0.000000 0.000000 0.000000 0.000000 0.000000 11.647494 4.841236 -0.089744 -27.265634 -42.193927 -24.644257 179.383846 -74.405516 179.660881 29.872745 -10.903694 -3.231268 -0.614273 0.935898 -0.000000 0.000000 0.000000 0.000000 0.000000 0.000000 0.000000 -18.182164 -2.271958 -0.903658 30.823248 35.722412 -34.027066 -179.336034 59.523148 179.770716 -21.148818 2.888929 -0.687920 0.517170 -0.711521 -0.000000 0.000000 0.000000 0.000000 0.000000 0.000000 0.000000 
-8.761019 18.890288 2.059604 -55.401808 87.526617 -0.865930 -9.744795 -1.970216 1.403770 -9.952088 4.650658 -87.681103 -1.686357 5.487316 52.578827 0.611043 2.678338 6.989331 1.213100 0.000000 -78.790500 8.668978 -0.128519 3.195774 12.736017 4.483475 -86.115229 1.104458 -5.756657 52.867381 -2.486204 -11.841328 9.851059 -5.213500 -0.000000 -56.492900 1.617897 2.150469 -1.551476 0.322767 2.149771 -3.404228 -1.377285 2.098975 -1.482132 -2.496196 -7.334832 -2.590300 0.000000 0.000000 0.000000 0.000000 0.000000 0.000000 11.841099 5.216726 -0.264720 -24.193996 -40.944607 -28.191543 179.367017 -72.331640 179.654689 31.201541 -11.084145 -3.435155 -0.662873 0.935230 -0.000000 0.000000 0.000000 0.000000 0.000000 0.000000 0.000000 -18.265401 -2.920443 -0.929854 28.692483 35.550290 -37.493860 -179.429544 58.312750 179.769853 -21.670228 2.793320 -0.684706 0.549542 -0.699585 -0.000000 0.000000 0.000000 0.000000 0.000000 0.000000 0.000000 
-8.665640 18.908369 2.047124 -56.827238 87.412480 -1.526639 -9.669697 -2.025325 1.537576 -9.476443 4.197881 -89.596955 -1.799266 5.578346 51.937754 0.527052 2.273215 7.063371 1.128400 0.000000 -78.855400 8.613706 -0.125617 3.241904 12.935618 5.190689 -87.898513 1.265713 -5.849158 52.255342 -2.404845 -11.500967 9.977493 -5.175600 -0.000000 -56.678200 1.602623 2.095632 -1.500111 0.310563 2.096311 -3.354794 -1.404235 2.040941 -1.350967 -2.489716 -7.646288 -2.459065 0.000000 0.000000 0.000000 0.000000 0.000000 0.000000 12.005548 5.608966 -0.418452 -21.419239 -39.558184 -31.520602 179.370195 -70.459767 179.652118 32.311544 -11.101755 -3.568715 -0.708765 0.929138 -0.000000 0.000000 0.000000 0.000000 0.000000 0.000000 0.000000 -18.352349 -3.564862 -0.956368 26.863818 35.222002 -40.689556 -179.529243 57.273308 179.770378 -22.104015 2.692344 -0.676379 0.578499 -0.686320 -0.000000 0.000000 0.000000 0.000000 0.000000 0.000000 0.000000 
-8.566641 18.917384 2.033616 -59.089184 87.335517 -3.042938 -9.603646 -2.072514 1.675633 -8.938942 3.737778 -91.385595 -1.920499 5.634009 51.104396 0.430618 1.823646 7.278391 1.031800 0.000000 -79.039600 8.570585 -0.135860 3.277296 13.139630 5.866370 -89.517362 1.461980 -5.919163 51.391742 -2.293878 -11.078096 10.264079 -5.132100 -0.000000 -56.925600 1.634169 2.033434 -1.435707 0.312006 2.033603 -3.295852 -1.435254 1.972894 -1.206030 -2.490247 -7.988284 -2.356586 0.000000 0.000000 0.000000 0.000000 0.000000 0.000000 12.163706 6.020117 -0.550506 -19.011939 -38.063975 -34.558465 179.387983 -68.779231 179.652183 33.233891 -10.970020 -3.633952 -0.751584 0.918335 -0.000000 0.000000 0.000000 0.000000 0.000000 0.000000 0.000000 -18.471827 -4.213387 -0.983894 25.396799 34.749017 -43.522146 -179.626053 56.385127 179.771749 -22.469871 2.585740 -0.663644 0.604029 -0.672488 -0.000000 0.000000 0.000000 0.000000 0.000000 0.000000 0.000000 
